<svg width="512" height="512" viewBox="0 0 512 512" fill="none" xmlns="http://www.w3.org/2000/svg">
<rect x="7" y="7" width="498" height="498" rx="249" stroke="#333333" stroke-width="2"/>
<path d="M256.725 140.812H242.164V178H222.955V78.4688H256.314C261.829 78.4688 266.819 79.1296 271.285 80.4512C275.751 81.7272 279.579 83.6185 282.77 86.125C285.914 88.6315 288.329 91.7533 290.016 95.4902C291.747 99.2272 292.613 103.557 292.613 108.479C292.613 112.033 292.18 115.246 291.314 118.117C290.494 120.943 289.309 123.472 287.76 125.705C286.165 127.984 284.251 129.966 282.018 131.652C279.83 133.339 277.369 134.797 274.635 136.027L296.031 177.111V178H275.455L256.725 140.812ZM242.164 125.227H256.383C259.345 125.227 261.943 124.816 264.176 123.996C266.454 123.13 268.3 121.9 269.713 120.305C270.898 119.029 271.786 117.502 272.379 115.725C273.017 113.947 273.336 111.965 273.336 109.777C273.336 107.134 272.926 104.81 272.105 102.805C271.331 100.754 270.146 99.0677 268.551 97.7461C267.138 96.5612 265.406 95.6497 263.355 95.0117C261.305 94.3737 258.958 94.0547 256.314 94.0547H242.164V125.227Z" fill="black"/>
<path d="M288.264 343.469L288.332 409.436C288.332 414.995 287.557 419.94 286.008 424.27C284.504 428.599 282.316 432.245 279.445 435.207C276.529 438.215 272.974 440.493 268.781 442.043C264.634 443.592 259.895 444.367 254.562 444.367C249.549 444.367 245.015 443.592 240.959 442.043C236.949 440.493 233.508 438.238 230.637 435.275C227.766 432.313 225.533 428.667 223.938 424.338C222.388 419.963 221.613 414.995 221.613 409.436L221.682 343.469H240.891L240.959 409.436C241.005 412.762 241.324 415.679 241.916 418.186C242.554 420.692 243.488 422.766 244.719 424.406C245.858 425.91 247.248 427.049 248.889 427.824C250.529 428.553 252.421 428.918 254.562 428.918C256.887 428.918 258.938 428.531 260.715 427.756C262.538 426.936 264.042 425.728 265.227 424.133C266.503 422.492 267.46 420.441 268.098 417.98C268.736 415.52 269.077 412.671 269.123 409.436L269.191 343.469H288.264Z" fill="black"/>
<path d="M45.3333 256C45.3333 261.891 50.109 266.667 56 266.667C61.891 266.667 66.6667 261.891 66.6667 256C66.6667 250.109 61.891 245.333 56 245.333C50.109 245.333 45.3333 250.109 45.3333 256ZM445.333 256C445.333 261.891 450.109 266.667 456 266.667C461.891 266.667 466.667 261.891 466.667 256C466.667 250.109 461.891 245.333 456 245.333C450.109 245.333 445.333 250.109 445.333 256ZM56 258H456V254H56V258Z" fill="black"/>
</svg>
